<svg width="2000" height="1000" viewBox="0 0 2000 1000" fill="none" xmlns="http://www.w3.org/2000/svg">
<g clip-path="url(#clip0_403_1826)">
<rect width="2000" height="1000" fill="white"/>
<path d="M424 339.5C504.454 370.323 733.394 413.773 859.5 317.5M859.5 317.5L818.5 308M859.5 317.5L854 359.5" stroke="#1890F1" stroke-width="12"/>
<path d="M1631.5 459.5C1521.71 518.372 1215.89 516.935 1139.61 352.181M1139.61 352.181L1180.5 361M1139.61 352.181L1125.5 395.5" stroke="#1890F1" stroke-width="12"/>
<path d="M857.531 597.499C882.911 580.005 945.88 484.233 947.134 381.415M947.134 381.415L915.955 409.685M947.134 381.415L974.032 412.499" stroke="#1890F1" stroke-width="12"/>
<path d="M1190.5 603.501C1169.86 602.576 1072.14 506.012 1047.08 382.671M1047.08 382.671L1082.63 405.195M1047.08 382.671L1025.89 417.894" stroke="#1890F1" stroke-width="12"/>
<path d="M1012.24 68.4528L1049.33 136.474C1052.55 142.381 1058.25 146.528 1064.87 147.767L1140.99 162.028C1144.85 162.751 1146.39 167.464 1143.69 170.324L1090.48 226.625C1085.86 231.514 1083.68 238.223 1084.54 244.895L1094.51 321.729C1095.02 325.634 1091 328.539 1087.46 326.857L1017.49 293.631C1011.41 290.745 1004.36 290.745 998.282 293.631L928.313 326.857C924.77 328.539 920.758 325.634 921.264 321.729L931.231 244.895C932.096 238.223 929.918 231.514 925.297 226.625L872.087 170.324C869.384 167.465 870.92 162.751 874.779 162.028L950.908 147.767C957.521 146.528 963.227 142.381 966.447 136.474L1003.53 68.4528C1005.41 65.0024 1010.36 65.0023 1012.24 68.4528Z" stroke="#FDE533" stroke-width="17.433" stroke-linejoin="round"/>
<path fill-rule="evenodd" clip-rule="evenodd" d="M1146.44 180.098L1096.81 232.612C1093.99 235.599 1092.66 239.698 1093.19 243.774L1103.15 320.609C1104.55 331.35 1093.5 339.376 1083.72 334.731L1013.75 301.506C1010.04 299.743 1005.73 299.743 1002.02 301.506L932.051 334.731C922.269 339.376 911.227 331.35 912.62 320.609L922.586 243.774C923.115 239.698 921.784 235.599 918.961 232.612L869.329 180.098H1146.44Z" fill="#FDE533"/>
<path d="M1762.28 532.41C1893.89 532.41 2000.57 425.762 2000.57 294.205C2000.57 162.648 1893.89 56 1762.28 56C1630.68 56 1524 162.648 1524 294.205C1524 425.762 1630.68 532.41 1762.28 532.41Z" fill="#E6F0FF"/>
<path d="M1708.25 78.6388C1708.25 78.6388 1650.72 72.7298 1622.64 142.848C1594.55 212.967 1609.18 375.396 1717.21 439.66C1825.24 503.924 1882.86 462.125 1882.86 462.125C1882.86 462.125 1951.96 477.592 1977.57 417.113C1983.92 402.109 1977.57 385.254 1977.57 385.254C1977.57 385.254 1991.19 400.612 1998.62 393.559C2006.44 386.098 1985.36 360.501 1963.68 333.924C1948.53 315.38 1937.5 274.181 1930.63 241.341C1912.82 156.954 1852.89 -0.574584 1708.25 78.6388Z" fill="#FDE533"/>
<mask id="mask0_403_1826" style="mask-type:alpha" maskUnits="userSpaceOnUse" x="1523" y="59" width="477" height="477">
<path d="M1761.28 535.41C1892.89 535.41 1999.57 428.762 1999.57 297.205C1999.57 165.648 1892.89 59 1761.28 59C1629.68 59 1523 165.648 1523 297.205C1523 428.762 1629.68 535.41 1761.28 535.41Z" fill="#E6F0FF"/>
</mask>
<g mask="url(#mask0_403_1826)">
<path d="M1951.85 477.593C1932.08 468.007 1869.13 450.008 1821.65 421.961L1809.74 413.628C1806.55 395.231 1806.55 376.421 1809.74 358.024C1809.74 358.024 1777.06 349.364 1755.95 356.09C1734.78 349.364 1702.15 358.024 1702.15 358.024C1705.33 376.422 1705.33 395.23 1702.15 413.628L1690.24 421.961C1642.74 450.008 1579.79 468.007 1559.98 477.593C1540.18 487.178 1537.21 535.73 1545.6 560.319C1552.55 580.633 1704.27 566.119 1755.92 559.475C1807.67 566.119 1959.32 580.633 1966.26 560.319C1974.65 535.73 1971.66 487.178 1951.85 477.593Z" fill="#D99474"/>
<path d="M1865.18 487.341C1865.14 473.422 1867.04 459.565 1870.81 446.168C1860.06 441.621 1849.16 436.665 1838.62 431.273C1833.55 470.05 1797.16 500.112 1752.98 500.112C1709.86 500.112 1674.15 471.466 1667.74 434.051C1657.17 439.252 1646.33 444.017 1635.74 448.374C1639.11 461.088 1640.8 474.188 1640.78 487.341C1640.78 520.916 1630.15 550.924 1613.54 570.639C1662.98 569.767 1726.15 563.314 1755.97 559.474C1784.63 563.178 1843.98 569.25 1892.42 570.367C1875.77 550.788 1865.18 520.834 1865.18 487.341Z" fill="#1890F1"/>
</g>
<path d="M1877.38 287.007C1893.57 287.007 1906.69 269.597 1906.69 248.121C1906.69 226.646 1893.57 209.236 1877.38 209.236C1861.19 209.236 1848.07 226.646 1848.07 248.121C1848.07 269.597 1861.19 287.007 1877.38 287.007Z" fill="#D99474"/>
<path d="M1634.48 287.007C1650.67 287.007 1663.79 269.597 1663.79 248.121C1663.79 226.646 1650.67 209.236 1634.48 209.236C1618.3 209.236 1605.17 226.646 1605.17 248.121C1605.17 269.597 1618.3 287.007 1634.48 287.007Z" fill="#D99474"/>
<path d="M1881.6 235.35C1881.6 304.761 1825.35 385.118 1755.92 385.118C1686.48 385.118 1630.26 304.87 1630.26 235.35C1630.02 218.697 1633.09 202.161 1639.29 186.704C1645.5 171.248 1654.71 157.179 1666.41 145.315C1678.1 133.452 1692.04 124.031 1707.41 117.601C1722.78 111.171 1739.27 107.859 1755.93 107.859C1772.59 107.859 1789.09 111.171 1804.46 117.601C1819.82 124.031 1833.76 133.452 1845.45 145.315C1857.15 157.179 1866.37 171.248 1872.57 186.704C1878.78 202.161 1881.85 218.697 1881.6 235.35V235.35Z" fill="#E29C74"/>
<path d="M1699.26 232.328C1699.25 234.106 1699.78 235.846 1700.76 237.328C1701.75 238.809 1703.15 239.965 1704.79 240.649C1706.43 241.334 1708.24 241.516 1709.99 241.172C1711.73 240.828 1713.34 239.975 1714.6 238.719C1715.86 237.463 1716.71 235.862 1717.06 234.118C1717.41 232.375 1717.24 230.566 1716.56 228.923C1715.88 227.279 1714.72 225.874 1713.25 224.886C1711.77 223.897 1710.03 223.369 1708.25 223.369C1707.07 223.366 1705.9 223.595 1704.81 224.043C1703.72 224.492 1702.73 225.151 1701.89 225.984C1701.06 226.816 1700.4 227.805 1699.94 228.893C1699.49 229.982 1699.26 231.149 1699.26 232.328" fill="#1172C8"/>
<path d="M1794.65 232.328C1794.65 234.1 1795.18 235.832 1796.16 237.305C1797.15 238.778 1798.55 239.927 1800.18 240.605C1801.82 241.283 1803.62 241.46 1805.36 241.115C1807.1 240.769 1808.7 239.916 1809.95 238.663C1811.2 237.41 1812.06 235.814 1812.4 234.076C1812.75 232.338 1812.57 230.537 1811.89 228.9C1811.22 227.263 1810.07 225.863 1808.59 224.879C1807.12 223.895 1805.39 223.369 1803.61 223.369C1801.24 223.369 1798.96 224.313 1797.28 225.993C1795.6 227.673 1794.65 229.952 1794.65 232.328" fill="#1172C8"/>
<path fill-rule="evenodd" clip-rule="evenodd" d="M1707 193.983C1703.37 193.702 1699.74 194.413 1696.49 196.039C1693.23 197.665 1690.48 200.145 1688.53 203.213C1688.13 203.848 1687.29 204.035 1686.65 203.632C1686.02 203.229 1685.83 202.387 1686.23 201.753C1688.45 198.267 1691.57 195.45 1695.27 193.604C1698.96 191.757 1703.09 190.949 1707.21 191.268C1707.96 191.326 1708.52 191.981 1708.46 192.731C1708.4 193.48 1707.75 194.041 1707 193.983Z" fill="#FDE533"/>
<path fill-rule="evenodd" clip-rule="evenodd" d="M1804.65 191.269C1808.77 190.946 1812.9 191.752 1816.59 193.6C1820.28 195.448 1823.4 198.268 1825.6 201.756C1826.01 202.391 1825.82 203.232 1825.18 203.634C1824.55 204.036 1823.7 203.847 1823.3 203.212C1821.36 200.142 1818.62 197.661 1815.37 196.034C1812.12 194.408 1808.49 193.699 1804.87 193.984C1804.12 194.042 1803.46 193.482 1803.4 192.733C1803.34 191.983 1803.9 191.328 1804.65 191.269Z" fill="#FDE533"/>
<path fill-rule="evenodd" clip-rule="evenodd" d="M1807.07 282.278C1807.78 282.549 1808.12 283.337 1807.85 284.039L1806.58 283.548C1807.85 284.039 1807.85 284.038 1807.85 284.039L1807.85 284.047L1807.85 284.06L1807.83 284.101C1807.81 284.135 1807.8 284.183 1807.77 284.243C1807.72 284.363 1807.64 284.535 1807.54 284.752C1807.34 285.186 1807.02 285.804 1806.59 286.568C1805.71 288.096 1804.33 290.209 1802.28 292.6C1798.18 297.386 1791.42 303.27 1780.75 307.811L1780.72 307.822C1767.42 313.169 1752.75 314.142 1738.86 310.6C1738.13 310.415 1737.69 309.673 1737.87 308.945C1738.06 308.216 1738.8 307.776 1739.53 307.962C1752.86 311.359 1766.93 310.427 1779.69 305.3C1789.94 300.937 1796.36 295.319 1800.21 290.828C1802.14 288.579 1803.42 286.609 1804.22 285.215C1804.62 284.517 1804.9 283.964 1805.08 283.592C1805.16 283.406 1805.23 283.265 1805.26 283.175C1805.28 283.129 1805.3 283.097 1805.3 283.077L1805.31 283.058C1805.58 282.357 1806.37 282.007 1807.07 282.278Z" fill="#744F41"/>
<path d="M1630.92 248.149C1630.92 248.149 1650.53 224.486 1650.99 180.672C1651.45 136.858 1595.45 184.648 1630.92 248.149Z" fill="#FDE533"/>
<path d="M1881 248.149C1881 248.149 1861.36 224.486 1860.9 180.672C1860.44 136.858 1916.47 184.648 1881 248.149Z" fill="#FDE533"/>
<path fill-rule="evenodd" clip-rule="evenodd" d="M1752.74 215.559C1753.54 215.625 1754.13 216.323 1754.06 217.117L1752.62 216.997L1751.18 216.877C1751.25 216.082 1751.95 215.492 1752.74 215.559ZM1746.68 271.372C1749.2 258.171 1751.03 244.703 1752.24 234.496C1752.86 229.32 1753.31 224.978 1753.61 221.929C1753.76 220.404 1753.87 219.203 1753.95 218.382C1753.99 217.972 1754.01 217.656 1754.03 217.443L1754.05 217.201L1754.06 217.117C1754.06 217.117 1754.06 217.117 1752.62 216.997L1751.18 216.877L1751.18 216.955L1751.16 217.193C1751.14 217.403 1751.11 217.715 1751.07 218.122C1751 218.936 1750.89 220.13 1750.74 221.646C1750.44 224.679 1749.99 229.001 1749.38 234.156C1748.15 244.468 1746.29 258.094 1743.74 271.376C1743.68 271.675 1743.72 271.984 1743.85 272.259L1745.16 271.649C1743.85 272.259 1743.85 272.258 1743.85 272.259L1743.85 272.264L1743.86 272.269L1743.86 272.281L1743.88 272.313C1743.89 272.337 1743.9 272.366 1743.92 272.401C1743.96 272.471 1744.01 272.563 1744.08 272.673C1744.22 272.892 1744.42 273.185 1744.7 273.523C1745.26 274.2 1746.13 275.055 1747.43 275.869C1750.04 277.508 1754.26 278.917 1760.88 278.535C1761.67 278.489 1762.28 277.807 1762.24 277.011C1762.19 276.216 1761.51 275.608 1760.71 275.654C1754.58 276.007 1750.98 274.693 1748.96 273.425C1747.95 272.786 1747.3 272.142 1746.92 271.683C1746.83 271.567 1746.75 271.462 1746.68 271.372Z" fill="#744F41"/>
<path d="M1639.49 209.264C1639.49 209.264 1703.67 188.16 1725.35 125.802C1725.35 125.802 1736.25 160.603 1789.99 174.599C1789.99 174.599 1782.75 154.258 1789.99 138.464C1789.99 138.464 1813.94 199.379 1869.97 212.722C1926 226.065 1874.95 132.12 1845.13 113.167C1815.3 94.2149 1794.43 86.9443 1760.68 86.9443C1726.93 86.9443 1644.89 126.429 1634.97 181.38C1625.06 236.331 1639.49 209.264 1639.49 209.264Z" fill="#FDE533"/>
<path d="M655.285 997.41C786.886 997.41 893.569 890.762 893.569 759.205C893.569 627.648 786.886 521 655.285 521C523.684 521 417 627.648 417 759.205C417 890.762 523.684 997.41 655.285 997.41Z" fill="#E6F0FF"/>
<ellipse cx="528.296" cy="926.764" rx="24" ry="29.6752" transform="rotate(160.832 528.296 926.764)" fill="#09133C"/>
<mask id="mask1_403_1826" style="mask-type:alpha" maskUnits="userSpaceOnUse" x="418" y="524" width="473" height="473">
<path d="M654.5 997C785.115 997 891 891.115 891 760.5C891 629.885 785.115 524 654.5 524C523.885 524 418 629.885 418 760.5C418 891.115 523.885 997 654.5 997Z" fill="#E6F0FF"/>
</mask>
<g mask="url(#mask1_403_1826)">
<path d="M844.853 942.593C825.077 933.007 762.127 915.008 714.648 886.961L702.745 878.628C699.552 860.231 699.552 841.421 702.745 823.024C702.745 823.024 670.057 814.364 648.946 821.09C627.781 814.364 595.148 823.024 595.148 823.024C598.326 841.422 598.326 860.23 595.148 878.628L583.245 886.961C535.739 915.008 472.788 933.007 452.985 942.593C433.182 952.178 430.213 1000.73 438.602 1025.32C445.548 1045.63 597.273 1031.12 648.919 1024.47C700.674 1031.12 852.317 1045.63 859.263 1025.32C867.653 1000.73 864.657 952.178 844.853 942.593Z" fill="#995B37"/>
<path d="M844.853 942.592C825.077 933.007 762.127 915.007 714.648 886.96C674 923 642.5 936 583.245 886.96C535.739 915.007 472.788 933.007 452.985 942.592C433.182 952.177 430.213 1000.73 438.602 1025.32C445.548 1045.63 597.273 1031.12 648.919 1024.47C700.674 1031.12 852.317 1045.63 859.263 1025.32C867.653 1000.73 864.657 952.177 844.853 942.592Z" fill="#F5B8A9"/>
<path d="M596.5 870C605.833 876.667 629.3 890 648.5 890C667.7 890 691.833 876.667 701.5 870" stroke="black" stroke-width="3" stroke-linecap="round"/>
</g>
<path d="M770.379 752.007C786.566 752.007 799.689 734.597 799.689 713.121C799.689 691.646 786.566 674.236 770.379 674.236C754.192 674.236 741.069 691.646 741.069 713.121C741.069 734.597 754.192 752.007 770.379 752.007Z" fill="#995B37"/>
<path d="M527.484 752.007C543.671 752.007 556.793 734.597 556.793 713.121C556.793 691.646 543.671 674.236 527.484 674.236C511.296 674.236 498.174 691.646 498.174 713.121C498.174 734.597 511.296 752.007 527.484 752.007Z" fill="#995B37"/>
<path d="M774.601 700.35C774.601 769.761 718.352 850.118 648.918 850.118C579.484 850.118 523.262 769.87 523.262 700.35C523.016 683.697 526.086 667.161 532.291 651.704C538.497 636.248 547.714 622.179 559.408 610.315C571.102 598.452 585.039 589.031 600.408 582.601C615.776 576.171 632.271 572.859 648.931 572.859C665.592 572.859 682.087 576.171 697.455 582.601C712.824 589.031 726.761 598.452 738.455 610.315C750.149 622.179 759.366 636.248 765.572 651.704C771.777 667.161 774.847 683.697 774.601 700.35Z" fill="#B57551"/>
<path d="M592.26 697.327C592.254 699.105 592.777 700.845 593.761 702.327C594.746 703.808 596.148 704.964 597.79 705.648C599.432 706.333 601.24 706.515 602.986 706.171C604.731 705.827 606.336 704.974 607.595 703.718C608.855 702.462 609.714 700.861 610.063 699.117C610.412 697.374 610.236 695.565 609.556 693.922C608.877 692.278 607.725 690.873 606.246 689.885C604.767 688.896 603.028 688.368 601.249 688.368C600.07 688.365 598.901 688.594 597.811 689.042C596.721 689.491 595.729 690.15 594.894 690.983C594.059 691.815 593.397 692.804 592.945 693.892C592.492 694.981 592.26 696.148 592.26 697.327" fill="#1F6D48"/>
<path d="M687.652 697.327C687.652 699.099 688.178 700.831 689.163 702.304C690.147 703.777 691.547 704.926 693.185 705.604C694.822 706.282 696.624 706.459 698.363 706.114C700.101 705.768 701.698 704.915 702.951 703.662C704.205 702.409 705.058 700.813 705.404 699.075C705.75 697.337 705.572 695.536 704.894 693.899C704.216 692.262 703.067 690.862 701.593 689.878C700.119 688.894 698.387 688.368 696.614 688.368C694.237 688.368 691.958 689.312 690.277 690.992C688.597 692.672 687.652 694.951 687.652 697.327" fill="#1F6D48"/>
<path fill-rule="evenodd" clip-rule="evenodd" d="M599.999 658.983C596.373 658.702 592.739 659.413 589.486 661.039C586.233 662.665 583.483 665.145 581.532 668.213C581.129 668.848 580.287 669.035 579.652 668.632C579.017 668.229 578.83 667.387 579.233 666.753C581.449 663.267 584.572 660.45 588.267 658.604C591.962 656.757 596.09 655.949 600.209 656.268C600.959 656.326 601.52 656.981 601.462 657.731C601.404 658.48 600.749 659.041 599.999 658.983Z" fill="#09133C"/>
<path fill-rule="evenodd" clip-rule="evenodd" d="M697.653 656.268C701.769 655.945 705.896 656.751 709.588 658.599C713.28 660.447 716.397 663.267 718.605 666.755C719.007 667.39 718.818 668.231 718.182 668.633C717.546 669.035 716.705 668.846 716.303 668.211C714.36 665.141 711.617 662.66 708.368 661.033C705.119 659.407 701.488 658.698 697.866 658.983C697.116 659.041 696.461 658.481 696.402 657.732C696.343 656.982 696.903 656.327 697.653 656.268Z" fill="#09133C"/>
<path fill-rule="evenodd" clip-rule="evenodd" d="M700.074 747.278C700.775 747.549 701.125 748.337 700.854 749.039L699.583 748.548C700.854 749.039 700.854 749.038 700.854 749.039L700.851 749.047L700.845 749.06L700.829 749.101C700.815 749.135 700.795 749.183 700.77 749.243C700.718 749.363 700.643 749.535 700.54 749.752C700.336 750.186 700.025 750.804 699.587 751.568C698.711 753.096 697.328 755.209 695.278 757.6C691.175 762.386 684.416 768.27 673.749 772.811L673.723 772.822C660.417 778.169 645.753 779.142 631.856 775.6C631.127 775.415 630.687 774.673 630.873 773.945C631.058 773.216 631.8 772.776 632.529 772.962C645.861 776.359 659.928 775.427 672.694 770.3C682.94 765.937 689.36 760.319 693.21 755.828C695.137 753.579 696.424 751.609 697.223 750.215C697.623 749.517 697.901 748.964 698.076 748.592C698.163 748.406 698.225 748.265 698.264 748.175C698.283 748.129 698.297 748.097 698.305 748.077L698.312 748.058C698.584 747.357 699.372 747.007 700.074 747.278Z" fill="#09133C"/>
<path d="M523.915 713.148C523.915 713.148 543.528 689.485 543.991 645.671C544.454 601.857 488.449 649.647 523.915 713.148Z" fill="#09133C"/>
<path d="M774.002 713.148C774.002 713.148 754.362 689.485 753.899 645.671C753.436 601.857 809.468 649.647 774.002 713.148Z" fill="#09133C"/>
<path fill-rule="evenodd" clip-rule="evenodd" d="M645.743 680.558C646.537 680.624 647.127 681.322 647.061 682.116L645.622 681.996L644.183 681.876C644.25 681.081 644.948 680.491 645.743 680.558ZM639.681 736.371C642.197 723.17 644.033 709.702 645.244 699.495C645.859 694.319 646.312 689.977 646.613 686.928C646.763 685.403 646.875 684.202 646.949 683.381C646.986 682.971 647.014 682.655 647.033 682.442L647.054 682.2L647.061 682.116C647.061 682.116 647.061 682.116 645.622 681.996L644.183 681.876L644.177 681.954L644.156 682.192C644.138 682.402 644.111 682.714 644.074 683.121C644 683.935 643.889 685.129 643.739 686.645C643.441 689.678 642.989 694 642.377 699.155C641.153 709.467 639.292 723.093 636.741 736.375C636.683 736.674 636.722 736.983 636.85 737.258L638.159 736.648C636.85 737.258 636.85 737.257 636.85 737.258L636.853 737.263L636.855 737.268L636.861 737.281L636.877 737.312C636.888 737.336 636.904 737.365 636.923 737.4C636.96 737.47 637.012 737.562 637.08 737.672C637.216 737.891 637.417 738.184 637.696 738.522C638.257 739.199 639.13 740.054 640.428 740.869C643.038 742.507 647.255 743.916 653.877 743.534C654.673 743.489 655.281 742.806 655.235 742.01C655.189 741.215 654.507 740.607 653.711 740.653C647.585 741.006 643.984 739.693 641.963 738.424C640.946 737.785 640.301 737.141 639.921 736.682C639.825 736.566 639.746 736.461 639.681 736.371Z" fill="#09133C"/>
<path d="M535 682.5C562.001 625.5 681.498 581.5 702.5 586C723.501 590.5 733.001 613 758.501 677.5C807.439 688.43 775.373 610.833 746 586C716.627 561.167 692.751 547.5 659.001 547.5C625.252 547.5 585 547.5 538.001 610.5C491.001 673.5 535 682.5 535 682.5Z" fill="#09133C"/>
<path d="M238.205 535.251C369.762 535.251 476.41 428.638 476.41 297.125C476.41 165.612 369.762 59 238.205 59C106.648 59 0 165.612 0 297.125C0 428.638 106.648 535.251 238.205 535.251Z" fill="#E6F0FF"/>
<mask id="mask2_403_1826" style="mask-type:alpha" maskUnits="userSpaceOnUse" x="1" y="62" width="474" height="474">
<path d="M238.205 535.138C368.902 535.138 474.853 429.223 474.853 298.569C474.853 167.916 368.902 62 238.205 62C107.508 62 1.55664 167.916 1.55664 298.569C1.55664 429.223 107.508 535.138 238.205 535.138Z" fill="#E6F0FF"/>
</mask>
<g mask="url(#mask2_403_1826)">
<path d="M238.204 521.409L172.584 421.827L184.488 413.468C187.681 395.079 187.681 376.279 184.488 357.89C184.488 357.89 217.175 349.231 238.286 355.93C259.478 349.231 292.084 357.89 292.084 357.89C288.909 376.28 288.909 395.078 292.084 413.468L303.988 421.827L238.204 521.409Z" fill="#D99474"/>
<path d="M27.9691 560.158C34.888 580.472 186.64 565.985 238.286 559.314C290.041 565.985 441.684 580.472 448.603 560.158C457.02 535.651 454.05 487.044 434.22 477.432C414.39 467.819 351.494 449.793 304.097 421.827C304.097 421.827 266.778 474.627 239.294 474.627C211.809 474.627 172.666 421.827 172.666 421.827C125.187 449.875 62.2093 467.847 42.4333 477.432C22.6574 487.017 19.5521 535.596 27.9691 560.158Z" fill="#1890F1"/>
<path d="M380.723 450.664C335.913 435.225 320.55 417.988 306.576 418.287C304.823 418.399 303.084 417.902 301.654 416.88C300.225 415.857 299.192 414.373 298.731 412.678C291.875 422.327 282.808 430.196 272.288 435.626C261.767 441.056 250.099 443.889 238.26 443.889C226.42 443.889 214.752 441.056 204.232 435.626C193.711 430.196 184.644 422.327 177.788 412.678C177.342 414.393 176.312 415.9 174.875 416.938C173.439 417.977 171.685 418.483 169.915 418.369C155.942 418.151 140.578 435.306 95.7693 450.746C38.8386 470.352 39.4651 559.396 39.4651 559.396H437.163C437.163 559.396 437.572 470.27 380.723 450.664Z" fill="#90CFB2"/>
<path d="M238.287 443.856C250.108 443.851 261.755 441.019 272.256 435.595C282.758 430.17 291.808 422.312 298.65 412.677C297.556 408.727 297.278 404.594 297.833 400.533C298.732 391.274 299.113 379.919 296.199 376.842C294.592 375.154 289.852 374.119 284.404 378.939C275.006 387.108 262.013 395.277 238.097 395.277C214.18 395.277 201.242 387.108 191.789 378.939C186.341 374.201 181.602 375.154 179.995 376.842C177.08 379.919 177.461 391.274 178.36 400.533C178.91 404.566 178.641 408.669 177.57 412.596C184.442 422.292 193.545 430.193 204.112 435.634C214.68 441.074 226.401 443.894 238.287 443.856V443.856Z" fill="#1F6D48"/>
</g>
<path d="M359.724 286.873C375.911 286.873 389.034 269.463 389.034 247.988C389.034 226.512 375.911 209.103 359.724 209.103C343.537 209.103 330.414 226.512 330.414 247.988C330.414 269.463 343.537 286.873 359.724 286.873Z" fill="#D99474"/>
<path d="M116.855 286.873C133.042 286.873 146.164 269.463 146.164 247.988C146.164 226.512 133.042 209.103 116.855 209.103C100.667 209.103 87.5449 226.512 87.5449 247.988C87.5449 269.463 100.667 286.873 116.855 286.873Z" fill="#D99474"/>
<path d="M364.028 235.217C364.028 304.6 307.751 384.848 238.344 384.848C168.938 384.848 112.606 304.6 112.606 235.217C112.606 201.894 125.848 169.937 149.418 146.375C172.988 122.812 204.956 109.575 238.29 109.575C271.623 109.575 303.591 122.812 327.161 146.375C350.732 169.937 363.973 201.894 363.973 235.217H364.028Z" fill="#E29C74"/>
<path d="M181.522 232.521C181.527 234.292 182.057 236.021 183.045 237.491C184.033 238.961 185.435 240.105 187.073 240.779C188.711 241.452 190.512 241.626 192.248 241.277C193.985 240.928 195.579 240.073 196.83 238.819C198.081 237.565 198.931 235.969 199.275 234.232C199.618 232.495 199.439 230.695 198.76 229.059C198.081 227.424 196.933 226.026 195.459 225.043C193.986 224.06 192.255 223.535 190.483 223.535C189.304 223.535 188.137 223.768 187.048 224.22C185.958 224.672 184.969 225.334 184.137 226.169C183.304 227.004 182.645 227.994 182.196 229.084C181.747 230.174 181.518 231.342 181.522 232.521" fill="#09133C"/>
<path d="M276.86 232.521C276.866 234.292 277.396 236.021 278.384 237.491C279.372 238.961 280.773 240.105 282.411 240.779C284.049 241.452 285.851 241.626 287.587 241.277C289.324 240.928 290.918 240.073 292.169 238.819C293.419 237.565 294.27 235.969 294.614 234.232C294.957 232.495 294.778 230.695 294.099 229.059C293.42 227.424 292.271 226.026 290.798 225.043C289.325 224.06 287.594 223.535 285.822 223.535C284.643 223.535 283.475 223.768 282.386 224.22C281.297 224.672 280.308 225.334 279.476 226.169C278.643 227.004 277.983 227.994 277.535 229.084C277.086 230.174 276.857 231.342 276.86 232.521" fill="#09133C"/>
<path fill-rule="evenodd" clip-rule="evenodd" d="M241.714 221.911C242.43 221.682 243.197 222.077 243.426 222.793L242.128 223.208C243.426 222.793 243.426 222.793 243.426 222.793L243.428 222.8L243.434 222.819L243.455 222.887C243.474 222.947 243.501 223.035 243.537 223.15C243.607 223.38 243.709 223.719 243.838 224.159C244.095 225.039 244.457 226.325 244.88 227.954C245.727 231.212 246.821 235.848 247.81 241.376C249.787 252.415 251.361 267.076 249.692 281.42C249.636 281.903 249.326 282.319 248.88 282.512C246.659 283.474 244.263 283.971 241.842 283.971C239.421 283.971 237.026 283.474 234.804 282.512C234.114 282.213 233.797 281.412 234.096 280.722C234.395 280.032 235.197 279.715 235.887 280.014C237.767 280.828 239.794 281.248 241.842 281.248C243.631 281.248 245.404 280.927 247.076 280.304C248.554 266.583 247.045 252.555 245.129 241.855C244.154 236.409 243.077 231.841 242.244 228.639C241.828 227.038 241.473 225.779 241.223 224.922C241.098 224.494 240.999 224.166 240.932 223.947C240.898 223.837 240.873 223.755 240.856 223.7L240.837 223.64L240.832 223.626L240.831 223.622" fill="#744F41"/>
<path fill-rule="evenodd" clip-rule="evenodd" d="M289.411 282.197C290.114 282.464 290.467 283.25 290.2 283.953L288.927 283.469C290.2 283.953 290.2 283.952 290.2 283.953L290.197 283.961L290.192 283.974L290.175 284.016C290.161 284.05 290.142 284.098 290.117 284.158C290.066 284.279 289.991 284.45 289.89 284.667C289.688 285.102 289.379 285.72 288.945 286.484C288.075 288.013 286.7 290.125 284.657 292.513C280.566 297.295 273.812 303.166 263.116 307.679L263.093 307.688C249.776 313.028 235.107 314.001 221.201 310.467C220.472 310.282 220.031 309.541 220.216 308.812C220.401 308.083 221.143 307.643 221.872 307.828C235.214 311.219 249.289 310.286 262.068 305.165C272.34 300.829 278.752 295.225 282.587 290.743C284.507 288.499 285.784 286.531 286.577 285.138C286.973 284.442 287.248 283.889 287.421 283.518C287.507 283.332 287.568 283.192 287.606 283.101C287.625 283.056 287.638 283.024 287.646 283.004L287.654 282.985C287.922 282.283 288.708 281.929 289.411 282.197Z" fill="#744F41"/>
<path d="M238.205 87.6272C238.205 87.6272 102.525 81.3097 112.603 235.216C112.603 235.216 154.879 179.394 152.346 143.559H323.955C321.449 179.394 363.725 235.216 363.725 235.216C373.776 81.3097 238.205 87.6272 238.205 87.6272Z" fill="#09133C"/>
<path fill-rule="evenodd" clip-rule="evenodd" d="M190.264 204.637C175.927 204.637 164.305 216.255 164.305 230.588C164.305 244.92 175.927 256.538 190.264 256.538C204.601 256.538 216.223 244.92 216.223 230.588C216.223 216.255 204.601 204.637 190.264 204.637ZM156.133 230.588C156.133 211.744 171.414 196.468 190.264 196.468C209.114 196.468 224.395 211.744 224.395 230.588C224.395 249.431 209.114 264.707 190.264 264.707C171.414 264.707 156.133 249.431 156.133 230.588Z" fill="#09133C"/>
<path fill-rule="evenodd" clip-rule="evenodd" d="M108 230.588C108 228.332 109.829 226.503 112.086 226.503H155.451C157.708 226.503 159.537 228.332 159.537 230.588C159.537 232.843 157.708 234.672 155.451 234.672H112.086C109.829 234.672 108 232.843 108 230.588Z" fill="#09133C"/>
<path fill-rule="evenodd" clip-rule="evenodd" d="M286.147 204.637C271.81 204.637 260.187 216.255 260.187 230.588C260.187 244.92 271.81 256.538 286.147 256.538C300.484 256.538 312.106 244.92 312.106 230.588C312.106 216.255 300.484 204.637 286.147 204.637ZM252.016 230.588C252.016 211.744 267.297 196.468 286.147 196.468C304.997 196.468 320.278 211.744 320.278 230.588C320.278 249.431 304.997 264.707 286.147 264.707C267.297 264.707 252.016 249.431 252.016 230.588Z" fill="#09133C"/>
<path fill-rule="evenodd" clip-rule="evenodd" d="M316.872 230.588C316.872 228.332 318.701 226.503 320.958 226.503H364.323C366.58 226.503 368.409 228.332 368.409 230.588C368.409 232.843 366.58 234.672 364.323 234.672H320.958C318.701 234.672 316.872 232.843 316.872 230.588Z" fill="#09133C"/>
<path fill-rule="evenodd" clip-rule="evenodd" d="M238.301 216.029C236.435 216.029 234.588 216.405 232.871 217.136C231.154 217.866 229.602 218.936 228.308 220.281C227.015 221.625 226.006 223.217 225.342 224.961C224.679 226.705 224.374 228.564 224.447 230.429C224.535 232.683 222.778 234.581 220.523 234.669C218.268 234.757 216.369 233.001 216.281 230.747C216.166 227.784 216.65 224.828 217.704 222.057C218.759 219.285 220.362 216.755 222.418 214.618C224.475 212.481 226.941 210.781 229.67 209.619C232.4 208.458 235.335 207.859 238.301 207.859C241.267 207.859 244.203 208.458 246.932 209.619C249.662 210.781 252.128 212.481 254.184 214.618C256.24 216.755 257.844 219.285 258.898 222.057C259.953 224.828 260.437 227.784 260.321 230.747C260.234 233.001 258.334 234.757 256.079 234.669C253.825 234.581 252.068 232.683 252.156 230.429C252.228 228.564 251.924 226.705 251.26 224.961C250.597 223.217 249.588 221.626 248.294 220.281C247.001 218.936 245.449 217.866 243.732 217.136C242.015 216.405 240.168 216.029 238.301 216.029Z" fill="#09133C"/>
<path d="M1342.21 1000.25C1473.76 1000.25 1580.41 893.638 1580.41 762.125C1580.41 630.612 1473.76 524 1342.21 524C1210.65 524 1104 630.612 1104 762.125C1104 893.638 1210.65 1000.25 1342.21 1000.25Z" fill="#E6F0FF"/>
<mask id="mask3_403_1826" style="mask-type:alpha" maskUnits="userSpaceOnUse" x="1105" y="527" width="474" height="474">
<path d="M1342.2 1000.14C1472.9 1000.14 1578.85 894.223 1578.85 763.569C1578.85 632.916 1472.9 527 1342.2 527C1211.51 527 1105.56 632.916 1105.56 763.569C1105.56 894.223 1211.51 1000.14 1342.2 1000.14Z" fill="#E6F0FF"/>
</mask>
<g mask="url(#mask3_403_1826)">
<path d="M1342.2 986.409L1276.58 886.827L1288.49 878.468C1291.68 860.079 1291.68 841.279 1288.49 822.89C1288.49 822.89 1321.18 814.231 1342.29 820.93C1363.48 814.231 1396.08 822.89 1396.08 822.89C1392.91 841.28 1392.91 860.078 1396.08 878.468L1407.99 886.827L1342.2 986.409Z" fill="#68381C"/>
<path d="M1131.97 1025.16C1138.89 1045.47 1290.64 1030.99 1342.29 1024.31C1394.04 1030.99 1545.68 1045.47 1552.6 1025.16C1561.02 1000.65 1558.05 952.044 1538.22 942.432C1518.39 932.819 1455.49 914.793 1408.1 886.827C1408.1 886.827 1370.78 939.627 1343.29 939.627C1315.81 939.627 1276.67 886.827 1276.67 886.827C1229.19 914.875 1166.21 932.847 1146.43 942.432C1126.66 952.017 1123.55 1000.6 1131.97 1025.16Z" fill="#1890F1"/>
<path d="M1484.72 915.664C1439.91 900.225 1424.55 882.988 1410.58 883.287C1408.82 883.399 1407.08 882.902 1405.65 881.88C1404.22 880.857 1403.19 879.373 1402.73 877.678C1395.88 887.327 1386.81 895.196 1376.29 900.626C1365.77 906.056 1354.1 908.889 1342.26 908.889C1330.42 908.889 1318.75 906.056 1308.23 900.626C1297.71 895.196 1288.64 887.327 1281.79 877.678C1281.34 879.393 1280.31 880.9 1278.88 881.938C1277.44 882.977 1275.68 883.483 1273.92 883.369C1259.94 883.151 1244.58 900.306 1199.77 915.746C1142.84 935.352 1143.47 1024.4 1143.47 1024.4H1541.16C1541.16 1024.4 1541.57 935.27 1484.72 915.664Z" fill="#FC9729"/>
</g>
<path d="M1463.72 751.873C1479.91 751.873 1493.03 734.463 1493.03 712.988C1493.03 691.512 1479.91 674.103 1463.72 674.103C1447.54 674.103 1434.41 691.512 1434.41 712.988C1434.41 734.463 1447.54 751.873 1463.72 751.873Z" fill="#68381C"/>
<path d="M1220.85 751.873C1237.04 751.873 1250.16 734.463 1250.16 712.988C1250.16 691.512 1237.04 674.103 1220.85 674.103C1204.67 674.103 1191.54 691.512 1191.54 712.988C1191.54 734.463 1204.67 751.873 1220.85 751.873Z" fill="#68381C"/>
<path d="M1468.03 700.217C1468.03 769.6 1411.75 849.848 1342.35 849.848C1272.94 849.848 1216.61 769.6 1216.61 700.217C1216.61 666.894 1229.85 634.937 1253.42 611.375C1276.99 587.812 1308.96 574.575 1342.29 574.575C1375.62 574.575 1407.59 587.812 1431.16 611.375C1454.73 634.937 1467.97 666.894 1467.97 700.217H1468.03Z" fill="#784325"/>
<path d="M1285.52 697.521C1285.53 699.292 1286.06 701.021 1287.05 702.491C1288.03 703.961 1289.43 705.105 1291.07 705.779C1292.71 706.452 1294.51 706.626 1296.25 706.277C1297.98 705.928 1299.58 705.073 1300.83 703.819C1302.08 702.565 1302.93 700.969 1303.27 699.232C1303.62 697.495 1303.44 695.695 1302.76 694.059C1302.08 692.424 1300.93 691.026 1299.46 690.043C1297.99 689.06 1296.25 688.535 1294.48 688.535C1293.3 688.535 1292.14 688.768 1291.05 689.22C1289.96 689.672 1288.97 690.334 1288.14 691.169C1287.3 692.004 1286.64 692.994 1286.2 694.084C1285.75 695.174 1285.52 696.342 1285.52 697.521" fill="#09133C"/>
<path d="M1269.5 681C1270.83 676.167 1277.1 665.6 1291.5 662" stroke="black" stroke-width="3" stroke-linecap="round"/>
<path d="M1412 681C1410.67 676.167 1404.4 665.6 1390 662" stroke="black" stroke-width="3" stroke-linecap="round"/>
<path d="M1380.86 697.521C1380.86 699.292 1381.39 701.021 1382.38 702.491C1383.37 703.961 1384.77 705.105 1386.41 705.779C1388.05 706.452 1389.85 706.626 1391.59 706.277C1393.32 705.928 1394.92 705.073 1396.17 703.819C1397.42 702.565 1398.27 700.969 1398.61 699.232C1398.96 697.495 1398.78 695.695 1398.1 694.059C1397.42 692.424 1396.27 691.026 1394.8 690.043C1393.32 689.06 1391.59 688.535 1389.82 688.535C1388.64 688.535 1387.47 688.768 1386.39 689.22C1385.3 689.672 1384.31 690.334 1383.47 691.169C1382.64 692.004 1381.98 692.994 1381.53 694.084C1381.08 695.174 1380.86 696.342 1380.86 697.521" fill="#09133C"/>
<path fill-rule="evenodd" clip-rule="evenodd" d="M1345.71 686.911C1346.43 686.682 1347.2 687.077 1347.43 687.793L1346.13 688.208C1347.43 687.793 1347.43 687.793 1347.43 687.793L1347.43 687.8L1347.43 687.819L1347.46 687.887C1347.48 687.947 1347.5 688.035 1347.54 688.15C1347.61 688.38 1347.71 688.719 1347.84 689.159C1348.1 690.039 1348.46 691.325 1348.88 692.954C1349.73 696.212 1350.82 700.848 1351.81 706.376C1353.79 717.415 1355.36 732.076 1353.69 746.42C1353.64 746.903 1353.33 747.319 1352.88 747.512C1350.66 748.474 1348.26 748.971 1345.84 748.971C1343.42 748.971 1341.03 748.474 1338.81 747.512C1338.12 747.213 1337.8 746.412 1338.1 745.722C1338.4 745.032 1339.2 744.715 1339.89 745.014C1341.77 745.828 1343.79 746.248 1345.84 746.248C1347.63 746.248 1349.4 745.927 1351.08 745.304C1352.55 731.583 1351.05 717.555 1349.13 706.855C1348.15 701.409 1347.08 696.841 1346.25 693.639C1345.83 692.038 1345.47 690.779 1345.22 689.922C1345.1 689.494 1345 689.166 1344.93 688.947C1344.9 688.837 1344.87 688.755 1344.86 688.7L1344.84 688.64L1344.83 688.626L1344.83 688.622" fill="#09133C"/>
<path fill-rule="evenodd" clip-rule="evenodd" d="M1393.41 747.197C1394.11 747.464 1394.47 748.25 1394.2 748.953L1392.93 748.469C1394.2 748.953 1394.2 748.952 1394.2 748.953L1394.2 748.961L1394.19 748.974L1394.18 749.016C1394.16 749.05 1394.14 749.098 1394.12 749.158C1394.07 749.279 1393.99 749.45 1393.89 749.667C1393.69 750.102 1393.38 750.72 1392.94 751.484C1392.08 753.013 1390.7 755.125 1388.66 757.513C1384.57 762.295 1377.81 768.166 1367.12 772.679L1367.09 772.688C1353.78 778.028 1339.11 779.001 1325.2 775.467C1324.47 775.282 1324.03 774.541 1324.22 773.812C1324.4 773.083 1325.14 772.643 1325.87 772.828C1339.21 776.219 1353.29 775.286 1366.07 770.165C1376.34 765.829 1382.75 760.225 1386.59 755.743C1388.51 753.499 1389.78 751.531 1390.58 750.138C1390.97 749.442 1391.25 748.889 1391.42 748.518C1391.51 748.332 1391.57 748.192 1391.61 748.101C1391.63 748.056 1391.64 748.024 1391.65 748.004L1391.65 747.985C1391.92 747.283 1392.71 746.929 1393.41 747.197Z" fill="#09133C"/>
<path d="M1467.47 700C1467.47 700 1425.63 650.247 1428.11 618.309C1427.36 608.369 1439.09 609.379 1445.05 611.126C1460.48 630.58 1470.46 658.871 1467.47 700Z" fill="#471E22"/>
<path d="M1217.53 700C1217.53 700 1259.37 650.247 1256.89 618.309C1257.64 608.369 1245.91 609.379 1239.95 611.126C1224.52 630.58 1214.54 658.871 1217.53 700Z" fill="#471E22"/>
<path d="M1341.5 592.5C1358.3 592.5 1386.5 590 1396 586.5C1388.33 582.333 1366.2 574 1339 574C1311.8 574 1295 582.333 1290 586.5C1301.83 590 1324.7 592.5 1341.5 592.5Z" fill="#09133C"/>
<ellipse cx="615.062" cy="551.571" rx="24" ry="32" transform="rotate(-21.5112 615.062 551.571)" fill="#09133C"/>
<ellipse cx="563.291" cy="526.607" rx="24" ry="32" transform="rotate(81.2115 563.291 526.607)" fill="#09133C"/>
<ellipse cx="593.925" cy="531.793" rx="7.12735" ry="9.50314" transform="rotate(-150 593.925 531.793)" fill="#1890F1"/>
<ellipse cx="515.976" cy="564.432" rx="24" ry="32" transform="rotate(-152.79 515.976 564.432)" fill="#09133C"/>
<ellipse cx="484.168" cy="620.102" rx="24" ry="32" transform="rotate(-160.854 484.168 620.102)" fill="#09133C"/>
<ellipse cx="472.885" cy="682.799" rx="24" ry="32" transform="rotate(-175.088 472.885 682.799)" fill="#09133C"/>
<ellipse cx="472.885" cy="746.799" rx="24" ry="32" transform="rotate(172.674 472.885 746.799)" fill="#09133C"/>
<ellipse cx="484.885" cy="809.798" rx="24" ry="32" transform="rotate(167.225 484.885 809.798)" fill="#09133C"/>
<ellipse cx="505.383" cy="870.218" rx="24" ry="32" transform="rotate(160.298 505.383 870.218)" fill="#09133C"/>
<path d="M1505.28 551.369C1505.28 546.747 1509.03 543 1513.65 543H1644.56C1649.19 543 1652.93 546.747 1652.93 551.369V626.249C1652.93 630.871 1649.19 634.618 1644.56 634.618H1529.72L1508.19 669.322C1507.35 670.664 1505.28 670.074 1505.28 668.495V551.369Z" fill="#90CFB2"/>
<circle cx="1545.59" cy="590.756" r="13.1438" fill="#1F6D48"/>
<circle cx="1578.89" cy="590.756" r="13.1438" fill="#1F6D48"/>
<circle cx="1612.19" cy="590.756" r="13.1438" fill="#1F6D48"/>
<path d="M602.822 136C622.054 136 637.644 119.658 637.644 99.5C637.644 79.3416 622.054 63 602.822 63C583.59 63 568 79.3416 568 99.5C568 119.658 583.59 136 602.822 136Z" fill="#EDC639"/>
<path d="M581.426 107.471C582.527 112.236 585.245 116.493 589.132 119.542C593.02 122.591 597.847 124.252 602.822 124.252C607.797 124.252 612.625 122.591 616.512 119.542C620.4 116.493 623.118 112.236 624.219 107.471H581.426Z" fill="#81530F"/>
<path d="M583.797 112.505H621.842C622.919 110.934 623.72 109.238 624.219 107.471H581.426C581.921 109.238 582.72 110.935 583.797 112.505V112.505Z" fill="white"/>
<path d="M594.431 97.4016C596.517 97.4016 598.207 92.8936 598.207 87.3327C598.207 81.7718 596.517 77.2637 594.431 77.2637C592.346 77.2637 590.655 81.7718 590.655 87.3327C590.655 92.8936 592.346 97.4016 594.431 97.4016Z" fill="#81530F"/>
<path d="M611.212 97.4016C613.298 97.4016 614.988 92.8936 614.988 87.3327C614.988 81.7718 613.298 77.2637 611.212 77.2637C609.127 77.2637 607.437 81.7718 607.437 87.3327C607.437 92.8936 609.127 97.4016 611.212 97.4016Z" fill="#81530F"/>
<path d="M621.999 109.121C620.635 113.053 618.053 116.467 614.614 118.884C611.175 121.302 607.052 122.602 602.822 122.602C598.593 122.602 594.47 121.302 591.031 118.884C587.592 116.467 585.009 113.053 583.645 109.121H621.999ZM624.219 107.471H581.426C582.527 112.236 585.244 116.493 589.132 119.542C593.02 122.591 597.847 124.252 602.822 124.252C607.798 124.252 612.625 122.591 616.513 119.542C620.401 116.493 623.118 112.236 624.219 107.471V107.471Z" fill="#81530F"/>
<path d="M869.095 697C910.016 697 943.19 662.526 943.19 620C943.19 577.474 910.016 543 869.095 543C828.174 543 795.001 577.474 795.001 620C795.001 662.526 828.174 697 869.095 697Z" fill="#EDC639"/>
<path d="M835.677 647.604C837.869 655.173 842.298 661.799 848.313 666.507C854.328 671.214 861.611 673.754 869.092 673.754C876.573 673.754 883.856 671.214 889.871 666.507C895.886 661.799 900.315 655.173 902.507 647.604H835.677Z" fill="#81530F"/>
<path d="M854.773 582.035C853.319 581.287 851.746 580.862 850.143 580.785C848.54 580.708 846.939 580.98 845.431 581.585C843.923 582.19 842.538 583.117 841.355 584.312C840.172 585.507 839.214 586.948 838.536 588.551C837.082 587.802 835.508 587.377 833.905 587.299C832.301 587.221 830.699 587.492 829.191 588.097C827.682 588.702 826.297 589.628 825.113 590.824C823.93 592.019 822.972 593.46 822.293 595.064C821.615 596.668 821.23 598.404 821.16 600.172C821.09 601.94 821.337 603.706 821.886 605.369C822.436 607.032 823.277 608.559 824.362 609.863C825.447 611.167 826.754 612.223 828.209 612.97L850.356 624.357L860.683 599.938C862.052 596.7 862.199 592.994 861.091 589.637C859.983 586.279 857.71 583.545 854.773 582.035V582.035Z" fill="#C2021D"/>
<path d="M885.115 582.035C886.62 581.287 888.25 580.862 889.909 580.785C891.569 580.708 893.226 580.98 894.787 581.585C896.348 582.19 897.782 583.117 899.007 584.312C900.231 585.507 901.223 586.948 901.925 588.551C903.431 587.799 905.062 587.371 906.723 587.291C908.385 587.211 910.045 587.481 911.608 588.085C913.172 588.689 914.608 589.616 915.835 590.812C917.062 592.008 918.056 593.45 918.758 595.056C919.461 596.661 919.86 598.399 919.932 600.168C920.004 601.938 919.747 603.706 919.176 605.37C918.606 607.034 917.733 608.562 916.607 609.866C915.482 611.17 914.126 612.225 912.617 612.97L889.688 624.357L878.997 599.938C877.579 596.7 877.427 592.994 878.574 589.637C879.722 586.279 882.075 583.545 885.115 582.035V582.035Z" fill="#C2021D"/>
<path d="M412 132.53C431.33 132.53 447 116.294 447 96.2651C447 76.2365 431.33 60 412 60C392.67 60 377 76.2365 377 96.2651C377 116.294 392.67 132.53 412 132.53Z" fill="#EDC639"/>
<path d="M404.411 98.7953C406.507 98.7953 408.206 96.5298 408.206 93.735C408.206 90.9403 406.507 88.6748 404.411 88.6748C402.315 88.6748 400.615 90.9403 400.615 93.735C400.615 96.5298 402.315 98.7953 404.411 98.7953Z" fill="#81530F"/>
<path d="M421.278 98.7953C423.374 98.7953 425.073 96.5298 425.073 93.735C425.073 90.9403 423.374 88.6748 421.278 88.6748C419.182 88.6748 417.482 90.9403 417.482 93.735C417.482 96.5298 419.182 98.7953 421.278 98.7953Z" fill="#81530F"/>
<path d="M420.855 115.662C420.275 113.709 419.101 111.999 417.507 110.785C415.913 109.57 413.982 108.915 412 108.915C410.017 108.915 408.087 109.57 406.493 110.785C404.899 111.999 403.725 113.709 403.145 115.662H420.855Z" fill="#81530F"/>
<path d="M402.105 78.5331L390.01 85.6768L392.165 89.4956L404.261 82.3519L402.105 78.5331Z" fill="#81530F"/>
<path d="M420.123 82.3515L432.219 89.4951L434.374 85.6763L422.278 78.5327L420.123 82.3515Z" fill="#81530F"/>
<path d="M408.203 113.989C408.203 116.223 407.315 118.364 405.733 119.943C404.152 121.522 402.006 122.409 399.77 122.409C397.533 122.409 395.388 121.522 393.806 119.943C392.225 118.364 391.336 116.223 391.336 113.989C391.336 108.112 399.77 97.9512 399.77 97.9512C399.77 97.9512 408.203 107.849 408.203 113.989Z" fill="#018FF6"/>
<rect x="377" y="142" width="261" height="66" rx="5" fill="#1890F1"/>
<rect x="400" y="170" width="215" height="10" rx="5" fill="#E6F0FF"/>
<rect x="400" y="170" width="173" height="10" rx="5" fill="#90CFB2"/>
<rect x="1389.55" y="200" width="187.094" height="100.743" rx="14" fill="#1890F1"/>
<path d="M1463.31 243.648L1457.83 244.675C1455.79 245.058 1454.31 246.841 1454.31 248.919V272.68C1454.31 274.627 1455.6 276.273 1457.37 276.811C1457.82 278.327 1459.09 279.513 1460.71 279.817L1485.49 284.463C1486.07 284.751 1486.72 284.913 1487.41 284.913H1498.92C1506.08 284.913 1511.88 279.114 1511.88 271.96V251.812C1511.88 244.658 1506.08 238.859 1498.92 238.859H1487.41C1487.15 238.859 1486.89 238.883 1486.64 238.928L1486.69 238.859C1483.95 238.859 1482.4 237.661 1481.59 236.122C1481.63 235.369 1481.65 234.601 1481.65 233.822C1481.65 223.886 1478.11 215.832 1473.74 215.832C1469.8 215.832 1466.53 222.376 1465.92 230.943H1465.82C1465.82 237.572 1464.67 241.474 1463.31 243.648Z" fill="white"/>
<rect x="1439.92" y="241.735" width="21.5878" height="40.2972" rx="1.65328" fill="#FFDEBA"/>
<rect x="1" y="-1" width="185.094" height="98.743" rx="13" transform="matrix(1 0 0 -1 1389.55 411)" fill="white" stroke="#1890F1" stroke-width="2"/>
<path d="M1463.31 369.353L1457.83 368.326C1455.79 367.943 1454.31 366.16 1454.31 364.082V340.321C1454.31 338.374 1455.6 336.728 1457.37 336.19C1457.82 334.674 1459.09 333.488 1460.71 333.184L1485.49 328.538C1486.07 328.25 1486.72 328.088 1487.41 328.088H1498.92C1506.08 328.088 1511.88 333.887 1511.88 341.041V361.189C1511.88 368.343 1506.08 374.142 1498.92 374.142H1487.41C1487.15 374.142 1486.89 374.118 1486.64 374.073L1486.69 374.142C1483.95 374.142 1482.4 375.339 1481.59 376.879C1481.63 377.632 1481.65 378.4 1481.65 379.179C1481.65 389.115 1478.11 397.169 1473.74 397.169C1469.8 397.169 1466.53 390.625 1465.92 382.057H1465.82C1465.82 375.429 1464.67 371.527 1463.31 369.353Z" fill="#FFDEBA"/>
<rect width="21.5878" height="40.2972" rx="1.65328" transform="matrix(1 0 0 -1 1439.92 371.263)" fill="#FC9729"/>
<ellipse cx="533.925" cy="542.794" rx="7.12735" ry="9.50314" transform="rotate(-41.3281 533.925 542.794)" fill="#1890F1"/>
<ellipse cx="495.831" cy="591.058" rx="7.12735" ry="9.50314" transform="rotate(-58.292 495.831 591.058)" fill="#1890F1"/>
<ellipse cx="475.83" cy="650.058" rx="7.12735" ry="9.50314" transform="rotate(-84.6988 475.83 650.058)" fill="#1890F1"/>
<ellipse cx="471.122" cy="713.975" rx="7.12735" ry="9.50314" transform="rotate(-92.4321 471.122 713.975)" fill="#1890F1"/>
<ellipse cx="477.798" cy="778.525" rx="7.12735" ry="9.50314" transform="rotate(-103.694 477.798 778.525)" fill="#1890F1"/>
<ellipse cx="494.921" cy="841.175" rx="7.12735" ry="9.50314" transform="rotate(-103.694 494.921 841.175)" fill="#1890F1"/>
<ellipse cx="516.921" cy="899.175" rx="7.12735" ry="9.50314" transform="rotate(-111.771 516.921 899.175)" fill="#1890F1"/>
</g>
<defs>
<clipPath id="clip0_403_1826">
<rect width="2000" height="1000" fill="white"/>
</clipPath>
</defs>
</svg>
